<mxfile host="app.diagrams.net" modified="2024-04-23T16:38:46.335Z" agent="Mozilla/5.0 (Windows NT 10.0; Win64; x64) AppleWebKit/537.36 (KHTML, like Gecko) Chrome/123.0.0.0 Safari/537.36" etag="158psBqAflJCB9pquEos" version="24.2.8" type="device">
  <diagram name="Page-1" id="13e1069c-82ec-6db2-03f1-153e76fe0fe0">
    <mxGraphModel dx="1481" dy="815" grid="1" gridSize="10" guides="1" tooltips="1" connect="1" arrows="1" fold="1" page="1" pageScale="1" pageWidth="1100" pageHeight="850" background="none" math="0" shadow="0">
      <root>
        <mxCell id="0" />
        <mxCell id="1" parent="0" />
        <mxCell id="bi6dFwhKYBM0Y18AbogB-19" value=":Databroker" style="shape=umlLifeline;perimeter=lifelinePerimeter;whiteSpace=wrap;html=1;container=1;collapsible=0;recursiveResize=0;outlineConnect=0;rounded=1;shadow=0;comic=0;labelBackgroundColor=none;strokeWidth=1;fontFamily=Verdana;fontSize=12;align=center;" parent="1" vertex="1">
          <mxGeometry x="10" y="10" width="100" height="350" as="geometry" />
        </mxCell>
        <mxCell id="bi6dFwhKYBM0Y18AbogB-20" value="" style="html=1;points=[];perimeter=orthogonalPerimeter;rounded=0;shadow=0;comic=0;labelBackgroundColor=none;strokeWidth=1;fontFamily=Verdana;fontSize=12;align=center;" parent="bi6dFwhKYBM0Y18AbogB-19" vertex="1">
          <mxGeometry x="45" y="90" width="10" height="170" as="geometry" />
        </mxCell>
        <mxCell id="bi6dFwhKYBM0Y18AbogB-21" value=":Provider" style="shape=umlLifeline;perimeter=lifelinePerimeter;whiteSpace=wrap;html=1;container=1;collapsible=0;recursiveResize=0;outlineConnect=0;rounded=1;shadow=0;comic=0;labelBackgroundColor=none;strokeWidth=1;fontFamily=Verdana;fontSize=12;align=center;" parent="1" vertex="1">
          <mxGeometry x="343" y="10" width="100" height="350" as="geometry" />
        </mxCell>
        <mxCell id="bi6dFwhKYBM0Y18AbogB-22" value="" style="html=1;points=[];perimeter=orthogonalPerimeter;rounded=0;shadow=0;comic=0;labelBackgroundColor=none;strokeWidth=1;fontFamily=Verdana;fontSize=12;align=center;" parent="bi6dFwhKYBM0Y18AbogB-21" vertex="1">
          <mxGeometry x="46.5" y="90" width="7.5" height="170" as="geometry" />
        </mxCell>
        <mxCell id="bi6dFwhKYBM0Y18AbogB-34" value="" style="endArrow=classic;html=1;rounded=0;exitX=0.041;exitY=0;exitDx=0;exitDy=0;exitPerimeter=0;" parent="1" source="bi6dFwhKYBM0Y18AbogB-22" target="bi6dFwhKYBM0Y18AbogB-19" edge="1">
          <mxGeometry width="50" height="50" relative="1" as="geometry">
            <mxPoint x="180" y="220" as="sourcePoint" />
            <mxPoint x="230" y="170" as="targetPoint" />
          </mxGeometry>
        </mxCell>
        <mxCell id="bi6dFwhKYBM0Y18AbogB-35" value="subscribe(all target_values)" style="edgeLabel;html=1;align=center;verticalAlign=middle;resizable=0;points=[];" parent="bi6dFwhKYBM0Y18AbogB-34" vertex="1" connectable="0">
          <mxGeometry x="0.0365" y="-1" relative="1" as="geometry">
            <mxPoint y="-7" as="offset" />
          </mxGeometry>
        </mxCell>
        <mxCell id="bi6dFwhKYBM0Y18AbogB-41" value="" style="endArrow=classic;html=1;rounded=0;entryX=-0.179;entryY=0.996;entryDx=0;entryDy=0;entryPerimeter=0;exitX=0.71;exitY=0.993;exitDx=0;exitDy=0;exitPerimeter=0;" parent="1" source="bi6dFwhKYBM0Y18AbogB-20" target="bi6dFwhKYBM0Y18AbogB-22" edge="1">
          <mxGeometry width="50" height="50" relative="1" as="geometry">
            <mxPoint x="70" y="210" as="sourcePoint" />
            <mxPoint x="393" y="210.284" as="targetPoint" />
          </mxGeometry>
        </mxCell>
        <mxCell id="bi6dFwhKYBM0Y18AbogB-42" value="stream Response (new target_value)" style="edgeLabel;html=1;align=center;verticalAlign=middle;resizable=0;points=[];" parent="bi6dFwhKYBM0Y18AbogB-41" vertex="1" connectable="0">
          <mxGeometry x="-0.1764" y="2" relative="1" as="geometry">
            <mxPoint x="20" y="-7" as="offset" />
          </mxGeometry>
        </mxCell>
      </root>
    </mxGraphModel>
  </diagram>
</mxfile>
